<svg xmlns="http://www.w3.org/2000/svg" viewBox="0 0 125.67 28.19" style="height: 50px;"><defs><style>.cls-1,.cls-3{fill:#ffcd05;}.cls-2{fill:none;stroke:#ffcd05;stroke-miterlimit:10;stroke-width:0.5px;}.cls-3{font-size:4.23px;font-family:Impact, Impact;letter-spacing:0.5em;}.cls-4{letter-spacing:0.49em;}.cls-5{font-size:15.65px;fill:#fff;letter-spacing:0.08em;}.cls-5,.cls-6{font-family:DINAlternate-Bold, DIN Alternate;font-weight:700;}.cls-6{font-size:5.08px;letter-spacing:0.88em;}.cls-6,.cls-8{fill:#ed2024;}.cls-7{letter-spacing:0.9em;}.cls-8{font-size:16.2px;font-family:PlantagenetCherokee, Plantagenet Cherokee;}</style></defs><title>logo</title><g id="Layer_2" data-name="Layer 2"><g id="Layer_1-2" data-name="Layer 1"><path class="cls-1" d="M31.31,8.76c.25.14,1.53-.43,1.52-.45h0a1.53,1.53,0,0,0-1.48-.83C30.86,7.57,31,8.57,31.31,8.76Z"/><path class="cls-1" d="M45.32,12.58a3.21,3.21,0,0,0,0-.42,3.47,3.47,0,0,0-6.8,1.37,3.81,3.81,0,0,0,.22.71,3.45,3.45,0,0,0,6.64-1.35C45.33,12.78,45.33,12.68,45.32,12.58Zm-3.46,2.79a2.53,2.53,0,1,1,2.53-2.53A2.53,2.53,0,0,1,41.86,15.37Z"/><path class="cls-1" d="M45.33,13.14a3,3,0,0,0,0-.3C45.33,12.94,45.33,13,45.33,13.14Z"/><path class="cls-1" d="M45.27,12.42a3.22,3.22,0,0,1,0,.42A3.15,3.15,0,0,0,45.27,12.42Z"/><path class="cls-1" d="M45.31,13.52c0-.12,0-.24,0-.37A3.46,3.46,0,0,1,45.31,13.52Z"/><path class="cls-1" d="M38.69,14.5a3.82,3.82,0,0,1-.22-.71A3.45,3.45,0,0,0,38.69,14.5Z"/><path class="cls-1" d="M21.38,10.8a3.67,3.67,0,0,0-.14.81,4.39,4.39,0,0,0,0,.84,3.35,3.35,0,0,0,.07.42,2.94,2.94,0,0,0,.1.41,3.09,3.09,0,0,0,.13.4c.05.13.1.26.16.39l.19.38c.06.13.15.24.22.36a6.6,6.6,0,0,0,.49.68,3.9,3.9,0,0,0,.28.32l.28.31.57.52,5.83-1.21,3-.58,2.85-.55c0-.5,0-1,0-1.5l-.06-.8-.12-.79L35,10.4,34.86,10c-.05-.12-.09-.25-.16-.37l-.21-.34c-.07-.11-.13-.23-.22-.34l-.53-.61L21.41,10.85Z"/><path class="cls-1" d="M47.38,11.68a1.07,1.07,0,0,1,.06-.95c.24-.57.46-1.36-.35-1.52-.52-.1-1.44.32-1.53-.53,0-.2,0-.37,0-.53a.3.3,0,0,0-.09.12,3.66,3.66,0,0,0,0-.4.72.72,0,0,0-.25-.16l-.26-.08-.3,0c-.25,0-.54-.05-.85-.06-.47,0-.93,0-1.31,0s-1,0-1.52,0h-.12l-1.19.08c-1.29.12-3.16.37-3.16.37L37,7.5l.2-.22h0c1.59-1.69,5.33-5.64,6-6.07l1-.21,0-.24L42.95,1,36.31,7.28l-.38-.07h0s-1.78-.53-3.74-1c-1.33-.29-4.87-.88-4.87-.88l0,0,0,0a15,15,0,0,0-3.1.24c-.89.12-1.77.3-2.65.5-1.45.32-2.91.82-4.33,1.28A15.31,15.31,0,0,0,13.65,9c-.84.53-1.58,1.19-2.42,1.73a11.37,11.37,0,0,1-2.51,1.2c-.85.28-1.76.4-2.57.74s-.53.67-.27,1.22a2.32,2.32,0,0,1,.16.49c.65,0,1.44,1.17,1.72,1.82-.13.29-1.31.27-1.71.26l0,.06a.8.8,0,0,1-.11.17c-.72.89.12,1.44.45,2.34.13.35.3.69.42,1L11,19.81a4.91,4.91,0,0,1,.43-2.45c.07-.15.15-.29.23-.43l.05-.09a4.34,4.34,0,0,1,.26-.38l0,0a4,4,0,0,1,.28-.32l0,0a3.4,3.4,0,0,1,.33-.29h0a3.38,3.38,0,0,1,2.06-.68,3.43,3.43,0,0,1,.76.06l.13,0,.16,0,.31.08h0l.08,0,.23.08,0,0a3.11,3.11,0,0,1,.8.48,6,6,0,0,1,1.73,3.19l19.51-3.94a4.48,4.48,0,0,1,0-3.39,3.62,3.62,0,0,1,5.17-2.08,3.29,3.29,0,0,1,1.23,1,5.2,5.2,0,0,1,.9,2.68,8.82,8.82,0,0,0,2-.44C48,12.54,47.54,12,47.38,11.68ZM11.07,15.36l-1.23.25a.38.38,0,0,1-.42-.33L9.3,14.7a.38.38,0,0,1,.26-.47L10.79,14a.38.38,0,0,1,.42.33l.11.57A.38.38,0,0,1,11.07,15.36Zm2.45-3.12s-1.23-.47-.37-1.38S15.5,8.42,20,7c-.17.36,1,3.36,1.23,3.8Zm22,2.27c-1,.22-2,.41-2.95.62l-2.95.61L23.74,16.9h-.07l0,0-.62-.6-.28-.33a3.88,3.88,0,0,1-.27-.33A6.93,6.93,0,0,1,22,14.9c-.07-.13-.15-.24-.21-.38l-.18-.39c-.06-.13-.1-.27-.15-.41a3,3,0,0,1-.12-.42,3,3,0,0,1-.08-.42,3.29,3.29,0,0,1,0-.43,4,4,0,0,1,.21-1.66C21.2,10.36,20,7.34,20.15,7a15.24,15.24,0,0,1,6.94-1,20.06,20.06,0,0,1,6.66,2.33l.57.58c.09.1.16.22.23.33l.23.34c.07.12.12.25.18.37l.17.37.24.78.14.81.08.81c0,.54,0,1.08.06,1.63v.11Zm-.31-6.46c-.53.23-.86,0-1.34-.17a41.08,41.08,0,0,0-5.87-2c-.63-.11-.76-.26-.75-.36.32,0,2.73.34,4.88.85,1.93.45,3.71,1,3.71,1.05A1.39,1.39,0,0,1,35.24,8.06Z"/><path class="cls-1" d="M45.62,13.37h.08a5.2,5.2,0,0,0-.9-2.68A5.16,5.16,0,0,1,45.62,13.37Z"/><path class="cls-1" d="M38.39,11.75a4.48,4.48,0,0,0,0,3.39l.09,0A4.45,4.45,0,0,1,38.39,11.75Z"/><path class="cls-1" d="M39.32,7.69c-1,.09-1.91.2-2.86.35,0,0,1.87-.25,3.16-.37Z"/><path class="cls-1" d="M37,7.5l.21-.22h0Z"/><path class="cls-1" d="M43.76,7.53c.31,0,.6,0,.85.06A5.54,5.54,0,0,0,43.76,7.53Z"/><path class="cls-1" d="M44.61,7.59l.3,0Z"/><path class="cls-1" d="M45.55,8.16a.46.46,0,0,0-.12-.27,3.66,3.66,0,0,1,0,.4A.3.3,0,0,1,45.55,8.16Z"/><polygon class="cls-1" points="12.62 15.78 12.63 15.77 12.63 15.77 12.62 15.78"/><path class="cls-1" d="M16,15.28l.08,0-.08,0Z"/><path class="cls-1" d="M17.19,15.88a5.94,5.94,0,0,1,1.63,3.21l.09,0A6,6,0,0,0,17.19,15.88Z"/><path class="cls-1" d="M18.21,17.88A3.47,3.47,0,0,0,16,15.32v0l-.31-.1-.29-.05a4.77,4.77,0,0,0-.76-.06,3.47,3.47,0,1,0,3.56,4.22A4.1,4.1,0,0,0,18.21,17.88Zm-3.37,3.25a2.53,2.53,0,1,1,2.53-2.53A2.53,2.53,0,0,1,14.84,21.13Z"/><path class="cls-1" d="M14.68,15.09a4.77,4.77,0,0,1,.76.06A3.43,3.43,0,0,0,14.68,15.09Z"/><path class="cls-1" d="M15.57,15.16l-.13,0,.29.05Z"/><path class="cls-1" d="M21.39,10.77v0h0Z"/><polygon class="cls-1" points="35.62 21.14 37.18 21.86 37.85 21.86 36.36 20.07 36.36 20.05 36.01 20.05 36.01 15.14 35.27 15.27 35.27 20.05 34.87 20.05 34.87 20.07 33.38 21.86 34.05 21.86 35.62 21.14"/><path class="cls-2" d="M45.5,8.15c.77-.59.37-1.24-3.56-1-3.55.17-5,.21-5,.21"/><text class="cls-3" transform="translate(53.94 26.79)">COMPL<tspan class="cls-4" x="21.99" y="0">E</tspan><tspan x="25.81" y="0">TE CAR CARE</tspan></text><text class="cls-5" transform="translate(52.85 13.86)">TRIPLE</text><text class="cls-6" transform="translate(53.94 19.65) scale(0.97 1)">A<tspan class="cls-7" x="7.57" y="0">U</tspan><tspan x="15.34" y="0">T</tspan><tspan class="cls-7" x="22.36" y="0">OM</tspan><tspan x="38.44" y="0">O</tspan><tspan class="cls-7" x="46.01" y="0">TIVE</tspan></text><text class="cls-8" transform="translate(110.25 13.58)">C</text><line class="cls-2" x1="121.67" y1="21.86" y2="21.86"/></g></g></svg>